<svg width="39" height="38" viewBox="0 0 39 38" fill="none" xmlns="http://www.w3.org/2000/svg">
<path d="M33.1444 5.60439C29.5138 2.00923 24.6094 -0.00522764 19.5 1.01887e-05H19.2994C14.1625 0.0528635 9.25398 2.13063 5.6403 5.78188C2.02662 9.43312 -0.00027187 14.3629 2.73516e-08 19.5C2.73516e-08 27.5625 4.98375 34.3238 13.005 37.1569C13.9097 37.4759 14.8777 37.5732 15.8278 37.4409C16.7779 37.3085 17.6825 36.9503 18.4656 36.3962C19.2486 35.8421 19.8875 35.1084 20.3285 34.2565C20.7694 33.4045 20.9997 32.4593 21 31.5C21 30.7044 21.3161 29.9413 21.8787 29.3787C22.4413 28.8161 23.2043 28.5 24 28.5H32.6644C34.0254 28.5066 35.3477 28.0475 36.4119 27.1989C37.476 26.3504 38.2179 25.1634 38.5144 23.835C38.8497 22.3588 39.0126 20.8487 39 19.335C38.9809 16.7728 38.4535 14.2398 37.4483 11.8828C36.4432 9.52587 34.9803 7.39184 33.1444 5.60439ZM35.5819 23.175C35.4329 23.8368 35.0625 24.4279 34.5321 24.8507C34.0016 25.2734 33.3427 25.5025 32.6644 25.5H24C22.4087 25.5 20.8826 26.1322 19.7574 27.2574C18.6321 28.3826 18 29.9087 18 31.5C17.9993 31.9792 17.8838 32.4512 17.6633 32.8766C17.4427 33.302 17.1234 33.6684 16.7322 33.9451C16.3409 34.2218 15.8891 34.4007 15.4145 34.4669C14.9399 34.5331 14.4564 34.4847 14.0044 34.3256C7.21687 31.9313 3 26.25 3 19.5C2.99977 15.1533 4.71471 10.9822 7.77226 7.89266C10.8298 4.80317 14.9829 3.04496 19.3294 3.00001H19.4981C23.8447 3.01689 28.0105 4.74147 31.0972 7.80182C34.1839 10.8622 35.944 15.0131 35.9981 19.3594C36.0093 20.6428 35.8721 21.9231 35.5894 23.175H35.5819ZM21.75 9.75001C21.75 10.195 21.618 10.63 21.3708 11C21.1236 11.3701 20.7722 11.6584 20.361 11.8287C19.9499 11.999 19.4975 12.0436 19.061 11.9568C18.6246 11.87 18.2237 11.6557 17.909 11.341C17.5943 11.0263 17.38 10.6254 17.2932 10.189C17.2064 9.75251 17.251 9.30011 17.4213 8.88897C17.5916 8.47784 17.88 8.12644 18.25 7.8792C18.62 7.63197 19.055 7.50001 19.5 7.50001C20.0967 7.50001 20.669 7.73706 21.091 8.15902C21.5129 8.58098 21.75 9.15327 21.75 9.75001ZM13.5 14.25C13.5 14.695 13.368 15.13 13.1208 15.5C12.8736 15.8701 12.5222 16.1584 12.111 16.3287C11.6999 16.499 11.2475 16.5436 10.811 16.4568C10.3746 16.37 9.97368 16.1557 9.65901 15.841C9.34434 15.5263 9.13005 15.1254 9.04323 14.689C8.95642 14.2525 9.00097 13.8001 9.17127 13.389C9.34157 12.9778 9.62996 12.6264 9.99997 12.3792C10.37 12.132 10.805 12 11.25 12C11.8467 12 12.419 12.2371 12.841 12.659C13.2629 13.081 13.5 13.6533 13.5 14.25ZM13.5 24.75C13.5 25.195 13.368 25.63 13.1208 26C12.8736 26.3701 12.5222 26.6584 12.111 26.8287C11.6999 26.999 11.2475 27.0436 10.811 26.9568C10.3746 26.87 9.97368 26.6557 9.65901 26.341C9.34434 26.0263 9.13005 25.6254 9.04323 25.189C8.95642 24.7525 9.00097 24.3001 9.17127 23.889C9.34157 23.4778 9.62996 23.1264 9.99997 22.8792C10.37 22.632 10.805 22.5 11.25 22.5C11.8467 22.5 12.419 22.7371 12.841 23.159C13.2629 23.581 13.5 24.1533 13.5 24.75ZM30 14.25C30 14.695 29.868 15.13 29.6208 15.5C29.3736 15.8701 29.0222 16.1584 28.611 16.3287C28.1999 16.499 27.7475 16.5436 27.311 16.4568C26.8746 16.37 26.4737 16.1557 26.159 15.841C25.8443 15.5263 25.63 15.1254 25.5432 14.689C25.4564 14.2525 25.501 13.8001 25.6713 13.389C25.8416 12.9778 26.13 12.6264 26.5 12.3792C26.87 12.132 27.305 12 27.75 12C28.3467 12 28.919 12.2371 29.341 12.659C29.7629 13.081 30 13.6533 30 14.25Z" fill="#7C3AED"/>
</svg>
