<svg width="35" height="36" viewBox="0 0 35 36" fill="none" xmlns="http://www.w3.org/2000/svg">
<path d="M34.5 5.99698C34.4994 4.8749 34.1842 3.77547 33.5902 2.82354C32.9962 1.87162 32.1471 1.10534 31.1394 0.611732C30.1318 0.118129 29.0059 -0.0830193 27.8896 0.0311328C26.7734 0.145285 25.7115 0.570162 24.8246 1.25751C23.9377 1.94486 23.2613 2.86714 22.8722 3.91961C22.4832 4.97207 22.397 6.11254 22.6236 7.2115C22.8502 8.31047 23.3804 9.32388 24.154 10.1366C24.9276 10.9494 25.9136 11.529 27 11.8095V14.997C27 15.3948 26.842 15.7763 26.5607 16.0576C26.2794 16.3389 25.8978 16.497 25.5 16.497H9.00001C8.4889 16.4968 7.98154 16.5844 7.50001 16.7557V11.8095C8.914 11.4444 10.1463 10.5761 10.9659 9.36747C11.7855 8.1588 12.1362 6.6927 11.9522 5.24398C11.7682 3.79526 11.0621 2.46338 9.96636 1.498C8.8706 0.532612 7.46037 2.77167e-06 6.00001 2.77167e-06C4.53965 2.77167e-06 3.12942 0.532612 2.03367 1.498C0.937906 2.46338 0.231848 3.79526 0.0478364 5.24398C-0.136175 6.6927 0.214493 8.1588 1.03411 9.36747C1.85373 10.5761 3.08603 11.4444 4.50001 11.8095V24.1845C3.08603 24.5496 1.85373 25.4178 1.03411 26.6265C0.214493 27.8352 -0.136175 29.3013 0.0478364 30.75C0.231848 32.1987 0.937906 33.5306 2.03367 34.496C3.12942 35.4613 4.53965 35.994 6.00001 35.994C7.46037 35.994 8.8706 35.4613 9.96636 34.496C11.0621 33.5306 11.7682 32.1987 11.9522 30.75C12.1362 29.3013 11.7855 27.8352 10.9659 26.6265C10.1463 25.4178 8.914 24.5496 7.50001 24.1845V20.997C7.50001 20.5992 7.65805 20.2176 7.93935 19.9363C8.22066 19.655 8.60219 19.497 9.00001 19.497H25.5C26.6935 19.497 27.8381 19.0229 28.682 18.179C29.5259 17.335 30 16.1905 30 14.997V11.8095C31.2875 11.4751 32.4277 10.723 33.242 9.67122C34.0563 8.6194 34.4988 7.32718 34.5 5.99698ZM3.00001 5.99698C3.00001 5.40363 3.17596 4.82362 3.50561 4.33027C3.83525 3.83692 4.30379 3.4524 4.85196 3.22534C5.40014 2.99828 6.00334 2.93887 6.58529 3.05462C7.16723 3.17038 7.70178 3.4561 8.12133 3.87566C8.54089 4.29522 8.82661 4.82976 8.94237 5.41171C9.05813 5.99365 8.99872 6.59685 8.77165 7.14503C8.54459 7.69321 8.16007 8.16174 7.66672 8.49139C7.17338 8.82103 6.59336 8.99698 6.00001 8.99698C5.20436 8.99698 4.4413 8.68091 3.87869 8.1183C3.31609 7.55569 3.00001 6.79263 3.00001 5.99698ZM9.00001 29.997C9.00001 30.5903 8.82407 31.1703 8.49442 31.6637C8.16478 32.157 7.69624 32.5416 7.14806 32.7686C6.59989 32.9957 5.99669 33.0551 5.41474 32.9393C4.8328 32.8236 4.29825 32.5379 3.87869 32.1183C3.45914 31.6987 3.17341 31.1642 3.05766 30.5822C2.9419 30.0003 3.00131 29.3971 3.22838 28.8489C3.45544 28.3007 3.83996 27.8322 4.3333 27.5026C4.82665 27.1729 5.40667 26.997 6.00001 26.997C6.79566 26.997 7.55872 27.313 8.12133 27.8757C8.68394 28.4383 9.00001 29.2013 9.00001 29.997ZM28.5 8.99698C27.9067 8.99698 27.3267 8.82103 26.8333 8.49139C26.34 8.16174 25.9554 7.69321 25.7284 7.14503C25.5013 6.59685 25.4419 5.99365 25.5577 5.41171C25.6734 4.82976 25.9591 4.29522 26.3787 3.87566C26.7983 3.4561 27.3328 3.17038 27.9147 3.05462C28.4967 2.93887 29.0999 2.99828 29.6481 3.22534C30.1962 3.4524 30.6648 3.83692 30.9944 4.33027C31.3241 4.82362 31.5 5.40363 31.5 5.99698C31.5 6.79263 31.1839 7.55569 30.6213 8.1183C30.0587 8.68091 29.2957 8.99698 28.5 8.99698Z" fill="#7C3AED"/>
</svg>
