<svg width="45" height="36" viewBox="0 0 45 36" fill="none" xmlns="http://www.w3.org/2000/svg">
<path d="M11.4595 11.6532L3.8433 18L11.4595 24.3469C11.6153 24.4716 11.7445 24.626 11.8398 24.8012C11.9351 24.9765 11.9945 25.1689 12.0146 25.3674C12.0346 25.5658 12.0148 25.7663 11.9564 25.957C11.8981 26.1477 11.8022 26.3249 11.6745 26.4781C11.5469 26.6313 11.3899 26.7576 11.2129 26.8494C11.0358 26.9413 10.8422 26.9969 10.6434 27.013C10.4446 27.0291 10.2446 27.0055 10.055 26.9433C9.8655 26.8812 9.69026 26.782 9.53955 26.6513L0.53955 19.1513C0.370673 19.0105 0.234806 18.8343 0.141568 18.6352C0.0483299 18.4361 0 18.219 0 17.9991C0 17.7793 0.0483299 17.5621 0.141568 17.363C0.234806 17.1639 0.370673 16.9877 0.53955 16.8469L9.53955 9.34692C9.84538 9.09232 10.2398 8.96963 10.6361 9.00584C11.0324 9.04206 11.3981 9.23422 11.6527 9.54005C11.9073 9.84588 12.03 10.2403 11.9938 10.6366C11.9575 11.0329 11.7654 11.3986 11.4595 11.6532ZM44.4595 16.8469L35.4595 9.34692C35.3081 9.22085 35.1333 9.12585 34.9452 9.06732C34.757 9.0088 34.5592 8.98791 34.363 9.00584C34.1668 9.02378 33.976 9.08018 33.8016 9.17184C33.6272 9.2635 33.4725 9.38862 33.3464 9.54005C33.0918 9.84588 32.9691 10.2403 33.0053 10.6366C33.0416 11.0329 33.2337 11.3986 33.5396 11.6532L41.1558 18L33.5396 24.3469C33.3838 24.4716 33.2546 24.626 33.1593 24.8012C33.064 24.9765 33.0046 25.1689 32.9845 25.3674C32.9645 25.5658 32.9843 25.7663 33.0427 25.957C33.101 26.1477 33.1969 26.3249 33.3246 26.4781C33.4522 26.6313 33.6092 26.7576 33.7862 26.8494C33.9633 26.9413 34.1569 26.9969 34.3557 27.013C34.5545 27.0291 34.7545 27.0055 34.9441 26.9433C35.1336 26.8812 35.3088 26.782 35.4595 26.6513L44.4595 19.1513C44.6284 19.0105 44.7643 18.8343 44.8575 18.6352C44.9508 18.4361 44.9991 18.219 44.9991 17.9991C44.9991 17.7793 44.9508 17.5621 44.8575 17.363C44.7643 17.1639 44.6284 16.9877 44.4595 16.8469ZM29.0114 0.0900496C28.8263 0.0228239 28.6297 -0.00727151 28.4329 0.00148162C28.2361 0.0102347 28.0429 0.0576653 27.8645 0.141064C27.686 0.224464 27.5257 0.342198 27.3928 0.487546C27.2598 0.632894 27.1568 0.803008 27.0895 0.988175L15.0895 33.9882C15.022 34.1735 14.9917 34.3702 15.0003 34.5672C15.0089 34.7642 15.0563 34.9576 15.1397 35.1363C15.2231 35.315 15.341 35.4754 15.4865 35.6085C15.632 35.7416 15.8023 35.8447 15.9877 35.9119C16.152 35.9703 16.3251 36.0001 16.4995 36C16.8076 36.0001 17.1082 35.9052 17.3604 35.7284C17.6127 35.5516 17.8044 35.3015 17.9095 35.0119L29.9095 2.01192C29.9768 1.82676 30.0069 1.63017 29.9981 1.43338C29.9894 1.23658 29.9419 1.04344 29.8585 0.864973C29.7751 0.686509 29.6574 0.52622 29.5121 0.393258C29.3667 0.260296 29.1966 0.157266 29.0114 0.0900496Z" fill="#7C3AED"/>
</svg>
