<svg width="45" height="36" viewBox="0 0 45 36" fill="none" xmlns="http://www.w3.org/2000/svg">
<path d="M6.6 18C7.23568 18.5229 7.7479 19.1798 8.1 19.9237C9 21.78 9 24.0487 9 26.25C9 30.8081 9.1875 33 13.5 33C13.8978 33 14.2794 33.158 14.5607 33.4393C14.842 33.7206 15 34.1022 15 34.5C15 34.8978 14.842 35.2794 14.5607 35.5607C14.2794 35.842 13.8978 36 13.5 36C10.2225 36 8.0025 34.8488 6.9 32.5763C6 30.72 6 28.4513 6 26.25C6 21.6919 5.8125 19.5 1.5 19.5C1.10218 19.5 0.720644 19.342 0.43934 19.0607C0.158035 18.7794 0 18.3978 0 18C0 17.6022 0.158035 17.2206 0.43934 16.9393C0.720644 16.658 1.10218 16.5 1.5 16.5C5.8125 16.5 6 14.3081 6 9.75C6 7.5525 6 5.28 6.9 3.42375C8.00625 1.15125 10.2262 0 13.5037 0C13.9016 0 14.2831 0.158036 14.5644 0.43934C14.8457 0.720645 15.0037 1.10218 15.0037 1.5C15.0037 1.89782 14.8457 2.27936 14.5644 2.56066C14.2831 2.84196 13.9016 3 13.5037 3C9.19125 3 9.00375 5.19187 9.00375 9.75C9.00375 11.9475 9.00375 14.22 8.10375 16.0763C7.75056 16.8206 7.23704 17.4775 6.6 18ZM43.5037 16.5C39.1912 16.5 39.0037 14.3081 39.0037 9.75C39.0037 7.5525 39.0037 5.28 38.1038 3.42375C37.0013 1.15125 34.7812 0 31.5037 0C31.1059 0 30.7244 0.158036 30.4431 0.43934C30.1618 0.720645 30.0037 1.10218 30.0037 1.5C30.0037 1.89782 30.1618 2.27936 30.4431 2.56066C30.7244 2.84196 31.1059 3 31.5037 3C35.8162 3 36.0037 5.19187 36.0037 9.75C36.0037 11.9475 36.0037 14.22 36.9038 16.0763C37.2559 16.8202 37.7681 17.4771 38.4038 18C37.7681 18.5229 37.2559 19.1798 36.9038 19.9237C36.0037 21.78 36.0037 24.0487 36.0037 26.25C36.0037 30.8081 35.8162 33 31.5037 33C31.1059 33 30.7244 33.158 30.4431 33.4393C30.1618 33.7206 30.0037 34.1022 30.0037 34.5C30.0037 34.8978 30.1618 35.2794 30.4431 35.5607C30.7244 35.842 31.1059 36 31.5037 36C34.7812 36 37.0013 34.8488 38.1038 32.5763C39.0037 30.72 39.0037 28.4513 39.0037 26.25C39.0037 21.6919 39.1912 19.5 43.5037 19.5C43.9016 19.5 44.2831 19.342 44.5644 19.0607C44.8457 18.7794 45.0037 18.3978 45.0037 18C45.0037 17.6022 44.8457 17.2206 44.5644 16.9393C44.2831 16.658 43.9016 16.5 43.5037 16.5Z" fill="#7C3AED"/>
</svg>
