<svg width="39" height="39" viewBox="0 0 39 39" fill="none" xmlns="http://www.w3.org/2000/svg">
<path d="M36 0H3C2.20435 0 1.44129 0.31607 0.87868 0.87868C0.31607 1.44129 0 2.20435 0 3V36C0 36.7957 0.31607 37.5587 0.87868 38.1213C1.44129 38.6839 2.20435 39 3 39H36C36.7957 39 37.5587 38.6839 38.1213 38.1213C38.6839 37.5587 39 36.7957 39 36V3C39 2.20435 38.6839 1.44129 38.1213 0.87868C37.5587 0.31607 36.7957 0 36 0ZM36 36H3V3H36V36ZM13.5 16.5V28.5C13.5 28.8978 13.342 29.2794 13.0607 29.5607C12.7794 29.842 12.3978 30 12 30C11.6022 30 11.2206 29.842 10.9393 29.5607C10.658 29.2794 10.5 28.8978 10.5 28.5V16.5C10.5 16.1022 10.658 15.7206 10.9393 15.4393C11.2206 15.158 11.6022 15 12 15C12.3978 15 12.7794 15.158 13.0607 15.4393C13.342 15.7206 13.5 16.1022 13.5 16.5ZM30 21.75V28.5C30 28.8978 29.842 29.2794 29.5607 29.5607C29.2794 29.842 28.8978 30 28.5 30C28.1022 30 27.7206 29.842 27.4393 29.5607C27.158 29.2794 27 28.8978 27 28.5V21.75C27 20.7554 26.6049 19.8016 25.9016 19.0984C25.1984 18.3951 24.2446 18 23.25 18C22.2554 18 21.3016 18.3951 20.5984 19.0984C19.8951 19.8016 19.5 20.7554 19.5 21.75V28.5C19.5 28.8978 19.342 29.2794 19.0607 29.5607C18.7794 29.842 18.3978 30 18 30C17.6022 30 17.2206 29.842 16.9393 29.5607C16.658 29.2794 16.5 28.8978 16.5 28.5V16.5C16.5019 16.1326 16.6385 15.7786 16.884 15.5053C17.1295 15.2319 17.4668 15.0582 17.832 15.017C18.1971 14.9759 18.5646 15.0702 18.8648 15.282C19.165 15.4938 19.377 15.8085 19.4606 16.1663C20.4753 15.4779 21.6584 15.0789 22.8828 15.0122C24.1071 14.9455 25.3265 15.2136 26.41 15.7876C27.4936 16.3617 28.4002 17.22 29.0327 18.2705C29.6652 19.3209 29.9996 20.5238 30 21.75ZM14.25 11.25C14.25 11.695 14.118 12.13 13.8708 12.5C13.6236 12.87 13.2722 13.1584 12.861 13.3287C12.4499 13.499 11.9975 13.5436 11.561 13.4568C11.1246 13.37 10.7237 13.1557 10.409 12.841C10.0943 12.5263 9.88005 12.1254 9.79323 11.689C9.70642 11.2525 9.75097 10.8001 9.92127 10.389C10.0916 9.97783 10.38 9.62643 10.75 9.37919C11.12 9.13196 11.555 9 12 9C12.5967 9 13.169 9.23705 13.591 9.65901C14.0129 10.081 14.25 10.6533 14.25 11.25Z" fill="#7C3AED"/>
</svg>
