<svg width="36" height="36" viewBox="0 0 36 36" fill="none" xmlns="http://www.w3.org/2000/svg">
<path d="M30.7722 17.9997C35.3941 11.5103 37.751 4.80347 34.4735 1.52597C31.196 -1.75153 24.4891 0.605348 17.9997 5.22722C11.5103 0.605348 4.80347 -1.75153 1.52597 1.52597C-1.75153 4.80347 0.605348 11.5103 5.22722 17.9997C0.605348 24.4891 -1.75153 31.196 1.52597 34.4735C2.5816 35.5291 3.9916 35.9997 5.6341 35.9997C9.0991 35.9997 13.5991 33.9053 18.0091 30.7722C22.4003 33.9053 26.9003 35.9997 30.3747 35.9997C32.0172 35.9997 33.4291 35.5272 34.4828 34.4735C37.751 31.196 35.3941 24.4891 30.7722 17.9997ZM32.3528 3.6466C33.7853 5.0791 32.8178 9.7216 28.8803 15.5116C27.6347 13.9696 26.3085 12.4944 24.9072 11.0922C23.5049 9.69291 22.0297 8.36856 20.4878 7.12472C26.2778 3.18722 30.9203 2.21222 32.3528 3.6466ZM27.0541 17.9997C25.7273 19.6782 24.3023 21.2766 22.7866 22.7866C21.2766 24.3023 19.6782 25.7273 17.9997 27.0541C16.3213 25.7273 14.7229 24.3023 13.2128 22.7866C11.6971 21.2766 10.2721 19.6782 8.94535 17.9997C11.6073 14.6453 14.6453 11.6073 17.9997 8.94535C19.6782 10.2721 21.2766 11.6971 22.7866 13.2128C24.3023 14.7229 25.7273 16.3213 27.0541 17.9997ZM3.6466 3.6466C4.0591 3.23222 4.73972 3.01847 5.63785 3.01847C7.8541 3.01847 11.3922 4.31222 15.5097 7.12472C13.9693 8.36958 12.4948 9.69388 11.0922 11.0922C9.69291 12.4945 8.36856 13.9697 7.12472 15.5116C3.18722 9.7216 2.2141 5.0791 3.6466 3.6466ZM3.6466 32.3528C2.2141 30.9203 3.18722 26.2778 7.12472 20.4878C8.37039 22.0299 9.69661 23.5051 11.0978 24.9072C12.4992 26.3054 13.9725 27.6297 15.5116 28.8747C9.7216 32.8122 5.0791 33.7872 3.6466 32.3528ZM32.3528 32.3528C30.9203 33.7872 26.2778 32.8178 20.4878 28.8803C22.029 27.6337 23.5041 26.3075 24.9072 24.9072C26.3065 23.5049 27.6309 22.0297 28.8747 20.4878C32.8122 26.2778 33.7853 30.9203 32.3528 32.3528ZM20.2497 17.9997C20.2497 18.4447 20.1178 18.8797 19.8705 19.2498C19.6233 19.6198 19.2719 19.9082 18.8608 20.0784C18.4496 20.2487 17.9972 20.2933 17.5608 20.2065C17.1243 20.1197 16.7234 19.9054 16.4087 19.5907C16.0941 19.276 15.8798 18.8751 15.793 18.4387C15.7061 18.0022 15.7507 17.5498 15.921 17.1387C16.0913 16.7276 16.3797 16.3761 16.7497 16.1289C17.1197 15.8817 17.5547 15.7497 17.9997 15.7497C18.5965 15.7497 19.1688 15.9868 19.5907 16.4087C20.0127 16.8307 20.2497 17.403 20.2497 17.9997Z" fill="#7C3AED"/>
</svg>
