<svg width="35" height="39" viewBox="0 0 35 39" fill="none" xmlns="http://www.w3.org/2000/svg">
<path d="M21.7144 32.3081C21.6559 32.8818 21.4711 33.4355 21.1731 33.9292C20.8752 34.423 20.4716 34.8446 19.9912 35.1637C19.0181 35.8125 17.8125 36 16.7119 36C15.7506 35.9945 14.7937 35.8685 13.8638 35.625C13.4806 35.5178 13.1557 35.2629 12.9605 34.9161C12.7654 34.5694 12.716 34.1594 12.8231 33.7762C12.9303 33.3931 13.1853 33.0682 13.532 32.873C13.8787 32.6779 14.2887 32.6285 14.6719 32.7356C15.4931 32.9606 17.4844 33.2419 18.3375 32.6681C18.5025 32.5575 18.6806 32.3831 18.7388 31.9313C18.8025 31.4306 18.6056 31.1625 16.3425 30.5081C14.5894 30.0019 11.655 29.1525 12.03 26.175C12.0885 25.6126 12.27 25.07 12.5616 24.5855C12.8532 24.1011 13.2479 23.6868 13.7175 23.3719C15.9375 21.8719 19.4756 22.7512 19.8731 22.8544C20.258 22.9556 20.587 23.2055 20.7876 23.5492C20.9882 23.893 21.044 24.3023 20.9428 24.6872C20.8416 25.0721 20.5917 25.401 20.2479 25.6016C19.9042 25.8022 19.4949 25.8581 19.11 25.7569C18.2681 25.5375 16.2544 25.2769 15.3919 25.8619C15.2788 25.9381 15.1857 26.0405 15.1205 26.1602C15.0552 26.28 15.0197 26.4137 15.0169 26.55C14.9944 26.7188 14.9906 26.7544 15.225 26.9062C15.6581 27.1856 16.4344 27.4087 17.1844 27.6262C19.0294 28.1569 22.1344 29.0625 21.7144 32.3081ZM34.5 12V36C34.5 36.7957 34.1839 37.5587 33.6213 38.1213C33.0587 38.6839 32.2957 39 31.5 39H27C26.6022 39 26.2206 38.842 25.9393 38.5607C25.658 38.2794 25.5 37.8978 25.5 37.5C25.5 37.1022 25.658 36.7206 25.9393 36.4393C26.2206 36.158 26.6022 36 27 36H31.5V13.5H22.5C22.1022 13.5 21.7206 13.342 21.4393 13.0607C21.158 12.7794 21 12.3978 21 12V3H4.5V16.5C4.5 16.8978 4.34196 17.2794 4.06066 17.5607C3.77936 17.842 3.39782 18 3 18C2.60218 18 2.22064 17.842 1.93934 17.5607C1.65804 17.2794 1.5 16.8978 1.5 16.5V3C1.5 2.20435 1.81607 1.44129 2.37868 0.87868C2.94129 0.316071 3.70435 4.63798e-07 4.5 4.63798e-07H22.5C22.697 -0.000154479 22.8922 0.0385137 23.0743 0.113796C23.2564 0.189078 23.4218 0.299499 23.5613 0.43875L34.0612 10.9388C34.2005 11.0782 34.3109 11.2436 34.3862 11.4257C34.4615 11.6078 34.5002 11.803 34.5 12ZM24 10.5H29.3794L24 5.12063V10.5ZM9 22.5H1.5C1.10218 22.5 0.720645 22.658 0.43934 22.9393C0.158036 23.2206 0 23.6022 0 24C0 24.3978 0.158036 24.7794 0.43934 25.0607C0.720645 25.342 1.10218 25.5 1.5 25.5H3.75V34.5C3.75 34.8978 3.90804 35.2794 4.18934 35.5607C4.47064 35.842 4.85218 36 5.25 36C5.64782 36 6.02936 35.842 6.31066 35.5607C6.59196 35.2794 6.75 34.8978 6.75 34.5V25.5H9C9.39782 25.5 9.77936 25.342 10.0607 25.0607C10.342 24.7794 10.5 24.3978 10.5 24C10.5 23.6022 10.342 23.2206 10.0607 22.9393C9.77936 22.658 9.39782 22.5 9 22.5Z" fill="#7C3AED"/>
</svg>
