<svg width="39" height="39" viewBox="0 0 39 39" fill="none" xmlns="http://www.w3.org/2000/svg">
<path d="M30.6755 22.6575L24.6755 19.6575C24.4393 19.5398 24.1763 19.4865 23.9129 19.503C23.6496 19.5194 23.3952 19.6051 23.1755 19.7512L20.4211 21.5887C19.1567 20.8937 18.1162 19.8532 17.4211 18.5887L19.2586 15.8344C19.4048 15.6147 19.4905 15.3603 19.5069 15.097C19.5234 14.8336 19.4701 14.5706 19.3524 14.3344L16.3524 8.33438C16.228 8.08326 16.0358 7.87199 15.7976 7.72452C15.5593 7.57705 15.2845 7.49927 15.0043 7.5C13.0151 7.5 11.1075 8.29018 9.70096 9.6967C8.29443 11.1032 7.50426 13.0109 7.50426 15C7.50922 19.3745 9.2492 23.5685 12.3425 26.6618C15.4357 29.7551 19.6297 31.495 24.0043 31.5C24.9892 31.5 25.9644 31.306 26.8744 30.9291C27.7843 30.5522 28.6111 29.9997 29.3076 29.3033C30.004 28.6069 30.5564 27.7801 30.9334 26.8701C31.3103 25.9602 31.5043 24.9849 31.5043 24C31.5045 23.7213 31.427 23.4481 31.2806 23.211C31.1343 22.9739 30.9247 22.7822 30.6755 22.6575ZM24.0043 28.5C20.4251 28.496 16.9936 27.0724 14.4627 24.5416C11.9318 22.0107 10.5082 18.5792 10.5043 15C10.504 13.9596 10.8642 12.9512 11.5236 12.1465C12.1831 11.3418 13.101 10.7904 14.1211 10.5863L16.2736 14.8988L14.4418 17.625C14.3049 17.8303 14.2208 18.0663 14.1969 18.3119C14.173 18.5575 14.2101 18.8053 14.3049 19.0331C15.3781 21.5838 17.4073 23.613 19.958 24.6863C20.1866 24.7852 20.4362 24.8258 20.6843 24.8042C20.9324 24.7826 21.1713 24.6995 21.3793 24.5625L24.1186 22.7362L28.4311 24.8888C28.2254 25.9101 27.6716 26.8284 26.8643 27.487C26.0569 28.1456 25.0461 28.5036 24.0043 28.5ZM19.5043 4.64391e-07C16.1376 -0.000734177 12.8282 0.870165 9.89798 2.52793C6.9678 4.18569 4.51672 6.57385 2.78333 9.45994C1.04994 12.346 0.0932842 15.6317 0.00648365 18.9972C-0.0803169 22.3627 0.705693 25.6934 2.28801 28.665L0.159881 35.0494C-0.0163975 35.578 -0.0419797 36.1452 0.0860022 36.6875C0.213984 37.2298 0.490472 37.7258 0.884478 38.1198C1.27848 38.5138 1.77443 38.7903 2.31674 38.9183C2.85906 39.0462 3.42629 39.0207 3.95488 38.8444L10.3393 36.7163C12.9544 38.1072 15.8522 38.8841 18.8124 38.988C21.7727 39.0919 24.7178 38.52 27.424 37.3157C30.1303 36.1115 32.5266 34.3065 34.4311 32.0379C36.3357 29.7693 37.6984 27.0965 38.4157 24.2226C39.1331 21.3487 39.1863 18.3491 38.5714 15.4516C37.9564 12.554 36.6894 9.83463 34.8666 7.49984C33.0437 5.16506 30.7129 3.27623 28.0511 1.97673C25.3893 0.677229 22.4664 0.00121543 19.5043 4.64391e-07ZM19.5043 36C16.6036 36.002 13.7538 35.2381 11.243 33.7856C11.0592 33.679 10.8548 33.6127 10.6434 33.591C10.432 33.5694 10.2184 33.5929 10.0168 33.66L3.00426 36L5.34238 28.9875C5.40978 28.786 5.4336 28.5725 5.41227 28.3611C5.39093 28.1497 5.32493 27.9452 5.21863 27.7612C3.39983 24.6167 2.66958 20.9598 3.14119 17.3579C3.61279 13.756 5.25987 10.4104 7.82692 7.84011C10.394 5.26981 13.7375 3.61851 17.3388 3.14236C20.9401 2.6662 24.5979 3.39183 27.7448 5.20666C30.8916 7.02149 33.3516 9.82408 34.743 13.1797C36.1345 16.5352 36.3798 20.2562 35.4407 23.7654C34.5016 27.2746 32.4307 30.3758 29.5493 32.5879C26.6678 34.8 23.1369 35.9994 19.5043 36Z" fill="#7C3AED"/>
</svg>
